<?xml version="1.0" standalone="no"?>
<!DOCTYPE svg PUBLIC "-//W3C//DTD SVG 20010904//EN"
 "http://www.w3.org/TR/2001/REC-SVG-20010904/DTD/svg10.dtd">
<svg version="1.0" xmlns="http://www.w3.org/2000/svg"
 width="512.000000pt" height="512.000000pt" viewBox="0 0 512.000000 512.000000"
 preserveAspectRatio="xMidYMid meet">
<metadata>
Created by potrace 1.11, written by Peter Selinger 2001-2013
</metadata>
<g transform="translate(0.000000,512.000000) scale(0.100000,-0.100000)"
fill="#000000" stroke="none">
<path d="M2588 5096 c-1 -2 -66 -6 -143 -9 -133 -6 -199 -12 -255 -23 -14 -3
-34 -6 -45 -8 -324 -49 -685 -190 -975 -380 -236 -155 -462 -368 -642 -606
-29 -39 -59 -83 -146 -220 -9 -14 -17 -27 -17 -30 0 -3 -10 -21 -23 -41 -12
-20 -22 -41 -22 -48 0 -6 -4 -11 -10 -11 -5 0 -10 -9 -10 -20 0 -11 -4 -20
-10 -20 -5 0 -10 -9 -10 -20 0 -11 -4 -20 -10 -20 -5 0 -10 -8 -10 -18 0 -10
-4 -22 -8 -27 -10 -12 -52 -114 -87 -215 -63 -178 -116 -434 -131 -630 -4 -60
-4 -337 0 -375 2 -16 7 -61 11 -100 4 -38 14 -106 22 -150 8 -44 16 -92 19
-107 3 -15 16 -66 30 -115 14 -48 26 -95 28 -103 23 -96 159 -399 242 -540 31
-53 85 -133 94 -140 4 -3 9 -12 12 -20 11 -28 175 -225 259 -310 66 -67 223
-205 294 -258 188 -141 429 -270 665 -355 125 -45 337 -102 419 -112 24 -3 47
-7 51 -10 42 -26 612 -26 750 0 14 3 42 8 64 11 50 7 74 12 94 18 9 3 28 7 42
10 56 11 210 56 289 85 119 44 131 49 271 118 323 160 607 387 834 668 81 100
166 220 166 234 0 5 4 11 8 13 27 10 173 303 235 469 76 202 137 474 152 679
7 90 7 318 1 385 -20 204 -43 332 -98 524 -82 289 -232 589 -408 816 -30 39
-58 75 -62 80 -71 91 -219 239 -348 347 -178 149 -419 294 -635 383 -49 20
-99 41 -110 46 -46 19 -256 80 -325 93 -14 2 -50 10 -80 16 -30 6 -75 13 -100
16 -25 2 -58 7 -75 10 -16 3 -75 7 -130 10 -55 3 -105 7 -112 9 -6 2 -13 2
-15 1z m-97 -572 c232 -114 463 -356 658 -687 46 -79 113 -204 116 -217 1 -3
18 -41 39 -85 21 -44 39 -84 40 -90 1 -5 10 -27 19 -49 43 -99 139 -404 129
-410 -4 -2 -43 -11 -87 -20 -44 -9 -91 -19 -105 -22 -14 -3 -36 -7 -50 -10
-13 -3 -56 -12 -95 -20 -38 -9 -81 -18 -95 -20 -47 -9 -65 -13 -193 -39 -70
-15 -130 -25 -132 -23 -2 2 -7 19 -10 38 -3 19 -10 53 -15 75 -5 22 -12 56
-15 75 -3 19 -8 43 -11 53 -3 11 -7 29 -9 40 -2 12 -13 67 -25 122 -12 55 -22
108 -22 118 1 9 -4 17 -9 17 -6 0 -8 4 -4 10 3 5 -2 40 -11 77 -8 37 -18 81
-21 97 -3 17 -18 93 -34 170 -17 78 -32 152 -34 166 -3 14 -8 36 -12 50 -3 14
-7 37 -9 52 -1 16 -7 43 -12 60 -6 18 -14 51 -18 73 -4 22 -8 45 -10 50 -1 6
-5 26 -9 45 -3 19 -10 53 -15 75 -5 22 -11 55 -15 72 -6 39 -34 160 -41 186
-5 15 -1 17 23 11 15 -4 58 -21 94 -40z m840 -32 c42 -17 92 -40 113 -51 20
-12 41 -21 46 -21 24 0 264 -152 360 -229 162 -128 325 -306 439 -475 60 -90
141 -234 141 -251 0 -8 4 -16 9 -19 5 -3 23 -43 41 -88 17 -46 36 -92 40 -103
16 -39 19 -55 12 -56 -8 -1 -19 -3 -93 -18 -30 -6 -69 -14 -85 -17 -16 -3 -45
-9 -64 -14 -19 -5 -48 -12 -65 -15 -67 -12 -84 -15 -179 -35 -54 -11 -100 -20
-101 -20 -2 0 -13 33 -25 73 -115 390 -256 716 -424 982 -31 50 -62 99 -69
110 -7 11 -14 22 -17 25 -3 3 -25 32 -50 65 -49 67 -126 162 -146 183 -8 7
-14 15 -14 17 0 6 50 -11 131 -43z m-1403 6 c0 -7 10 -57 21 -110 11 -54 23
-108 25 -120 2 -13 9 -43 15 -68 7 -25 14 -61 17 -80 2 -19 7 -43 10 -52 3
-10 7 -28 9 -40 6 -31 45 -221 100 -483 25 -121 48 -231 51 -245 3 -14 13 -65
24 -115 10 -49 21 -103 24 -120 9 -50 15 -76 20 -93 3 -9 8 -33 11 -52 3 -19
12 -63 20 -98 8 -35 15 -69 15 -76 0 -9 -45 -22 -132 -40 -134 -27 -159 -32
-200 -40 -13 -3 -57 -12 -98 -21 -105 -23 -103 -23 -145 -29 -20 -4 -40 -8
-44 -10 -3 -3 -26 -7 -50 -11 -24 -3 -54 -10 -67 -15 -13 -5 -24 -8 -24 -5 0
2 -13 0 -30 -5 -16 -5 -30 -6 -31 -2 0 4 -2 14 -4 22 -10 47 -16 103 -30 280
-7 75 -7 414 -1 470 3 25 8 76 11 113 4 37 8 78 11 90 3 12 6 36 9 52 12 98
63 294 102 400 72 192 159 334 270 443 75 73 89 82 91 60z m-822 -457 c-5 -8
-54 -194 -62 -236 -2 -11 -7 -33 -10 -50 -4 -16 -8 -41 -10 -55 -2 -14 -8 -56
-14 -95 -5 -38 -12 -85 -15 -104 -9 -59 -18 -262 -18 -396 0 -134 12 -395 18
-405 2 -3 6 -31 9 -61 13 -127 17 -152 22 -160 3 -5 -1 -9 -8 -10 -15 -1 -16
-1 -138 -27 -52 -12 -106 -23 -120 -25 -14 -3 -36 -8 -50 -11 -14 -3 -36 -8
-50 -10 -14 -3 -56 -12 -95 -20 -38 -8 -72 -13 -75 -10 -8 9 -6 371 3 439 29
230 96 455 199 668 21 43 38 82 38 87 0 6 4 10 8 10 5 0 14 12 21 27 11 23 58
96 138 213 29 42 203 240 211 240 2 0 1 -4 -2 -9z m3529 -1493 c-2 -192 -12
-295 -40 -423 -4 -16 -8 -37 -10 -45 -2 -8 -4 -15 -5 -15 -2 0 -4 -8 -13 -55
-3 -14 -15 -54 -27 -89 -107 -320 -272 -589 -505 -825 -108 -110 -106 -110
-78 -14 24 81 41 143 49 183 2 11 8 40 13 65 6 25 13 61 15 80 3 19 7 44 10
55 2 11 7 47 10 80 4 33 9 79 12 101 3 23 7 75 9 115 2 41 4 76 5 79 8 28 -3
439 -15 542 -9 76 -27 233 -29 243 0 5 4 10 9 10 6 1 17 4 25 7 8 4 31 9 50
13 19 3 46 8 60 11 21 4 216 44 400 82 25 6 48 10 52 11 3 1 5 -95 3 -211z
m-1040 -33 c1 -11 5 -40 8 -65 7 -50 15 -144 22 -235 6 -70 6 -364 0 -415 -1
-19 -6 -73 -10 -119 -4 -47 -9 -94 -11 -105 -3 -12 -7 -34 -9 -51 -44 -332
-193 -681 -359 -844 -48 -47 -46 -47 -60 24 -4 17 -8 39 -10 50 -2 11 -14 65
-25 120 -12 55 -28 132 -36 170 -8 39 -17 81 -19 95 -19 87 -27 128 -32 153
-2 16 -13 66 -23 110 -11 45 -22 96 -24 112 -3 17 -12 62 -21 100 -8 39 -17
82 -19 95 -5 25 -19 92 -83 397 -40 196 -43 209 -51 249 l-5 31 108 21 c107
21 231 47 489 102 149 32 168 33 170 5z m-1199 -267 c4 -24 8 -53 10 -65 1
-12 5 -26 8 -31 3 -6 8 -29 11 -52 3 -24 8 -46 10 -50 2 -4 7 -22 10 -41 10
-61 36 -182 40 -188 2 -4 6 -25 9 -47 7 -46 7 -47 35 -174 11 -52 38 -185 61
-295 22 -110 45 -218 50 -240 8 -32 91 -430 105 -508 2 -9 7 -22 11 -28 13
-21 -79 2 -163 41 -212 99 -437 313 -608 580 -27 41 -56 87 -66 101 -61 91
-190 366 -259 554 -40 109 -101 308 -96 313 3 2 33 10 68 17 162 35 255 55
278 60 14 2 59 12 100 20 41 8 89 18 105 21 17 2 75 15 130 28 143 34 142 34
151 -16z m-1270 -253 c20 -93 142 -442 201 -575 34 -77 135 -279 169 -340 70
-125 212 -331 282 -411 17 -20 32 -39 32 -43 0 -19 -261 111 -385 192 -355
232 -628 563 -791 957 -48 118 -56 145 -41 146 7 0 21 3 32 5 11 3 29 7 40 9
21 4 93 20 135 29 26 6 116 24 161 32 14 3 47 10 75 17 74 18 83 17 90 -18z"/>
</g>
</svg>
